# Lightweight Saturn Model for ASCII Renderer
v 0 16.59 0
v 1.59 16.43 0
v 1.54 16.43 0.41
v 1.38 16.43 0.8
v 1.13 16.43 1.13
v 0.8 16.43 1.38
v 0.41 16.43 1.54
v 0 16.43 1.59
v -0.41 16.43 1.54
v -0.8 16.43 1.38
v -1.13 16.43 1.13
v -1.38 16.43 0.8
v -1.54 16.43 0.41
v -1.59 16.43 0
v -1.54 16.43 -0.41
v -1.38 16.43 -0.8
v -1.13 16.43 -1.13
v -0.8 16.43 -1.38
v -0.41 16.43 -1.54
v 0 16.43 -1.59
v 0.41 16.43 -1.54
v 0.8 16.43 -1.38
v 1.13 16.43 -1.13
v 1.38 16.43 -0.8
v 1.54 16.43 -0.41
v 3.12 15.97 0
v 3.02 15.97 0.81
v 2.71 15.97 1.56
v 2.21 15.97 2.21
v 1.56 15.97 2.71
v 0.81 15.97 3.02
v 0 15.97 3.12
v -0.81 15.97 3.02
v -1.56 15.97 2.71
v -2.21 15.97 2.21
v -2.71 15.97 1.56
v -3.02 15.97 0.81
v -3.12 15.97 0
v -3.02 15.97 -0.81
v -2.71 15.97 -1.56
v -2.21 15.97 -2.21
v -1.56 15.97 -2.71
v -0.81 15.97 -3.02
v 0 15.97 -3.12
v 0.81 15.97 -3.02
v 1.56 15.97 -2.71
v 2.21 15.97 -2.21
v 2.71 15.97 -1.56
v 3.02 15.97 -0.81
v 4.54 15.21 0
v 4.38 15.21 1.17
v 3.93 15.21 2.27
v 3.21 15.21 3.21
v 2.27 15.21 3.93
v 1.17 15.21 4.38
v 0 15.21 4.54
v -1.17 15.21 4.38
v -2.27 15.21 3.93
v -3.21 15.21 3.21
v -3.93 15.21 2.27
v -4.38 15.21 1.17
v -4.54 15.21 0
v -4.38 15.21 -1.17
v -3.93 15.21 -2.27
v -3.21 15.21 -3.21
v -2.27 15.21 -3.93
v -1.17 15.21 -4.38
v 0 15.21 -4.54
v 1.17 15.21 -4.38
v 2.27 15.21 -3.93
v 3.21 15.21 -3.21
v 3.93 15.21 -2.27
v 4.38 15.21 -1.17
v 5.77 14.2 0
v 5.58 14.2 1.49
v 5 14.2 2.89
v 4.08 14.2 4.08
v 2.89 14.2 5
v 1.49 14.2 5.58
v 0 14.2 5.77
v -1.49 14.2 5.58
v -2.89 14.2 5
v -4.08 14.2 4.08
v -5 14.2 2.89
v -5.58 14.2 1.49
v -5.77 14.2 0
v -5.58 14.2 -1.49
v -5 14.2 -2.89
v -4.08 14.2 -4.08
v -2.89 14.2 -5
v -1.49 14.2 -5.58
v 0 14.2 -5.77
v 1.49 14.2 -5.58
v 2.89 14.2 -5
v 4.08 14.2 -4.08
v 5 14.2 -2.89
v 5.58 14.2 -1.49
v 6.79 12.96 0
v 6.56 12.96 1.76
v 5.88 12.96 3.39
v 4.8 12.96 4.8
v 3.39 12.96 5.88
v 1.76 12.96 6.56
v 0 12.96 6.79
v -1.76 12.96 6.56
v -3.39 12.96 5.88
v -4.8 12.96 4.8
v -5.88 12.96 3.39
v -6.56 12.96 1.76
v -6.79 12.96 0
v -6.56 12.96 -1.76
v -5.88 12.96 -3.39
v -4.8 12.96 -4.8
v -3.39 12.96 -5.88
v -1.76 12.96 -6.56
v 0 12.96 -6.79
v 1.76 12.96 -6.56
v 3.39 12.96 -5.88
v 4.8 12.96 -4.8
v 5.88 12.96 -3.39
v 6.56 12.96 -1.76
v 7.54 11.55 0
v 7.29 11.55 1.95
v 6.53 11.55 3.77
v 5.33 11.55 5.33
v 3.77 11.55 6.53
v 1.95 11.55 7.29
v 0 11.55 7.54
v -1.95 11.55 7.29
v -3.77 11.55 6.53
v -5.33 11.55 5.33
v -6.53 11.55 3.77
v -7.29 11.55 1.95
v -7.54 11.55 0
v -7.29 11.55 -1.95
v -6.53 11.55 -3.77
v -5.33 11.55 -5.33
v -3.77 11.55 -6.53
v -1.95 11.55 -7.29
v 0 11.55 -7.54
v 1.95 11.55 -7.29
v 3.77 11.55 -6.53
v 5.33 11.55 -5.33
v 6.53 11.55 -3.77
v 7.29 11.55 -1.95
v 8.01 10.02 0
v 7.74 10.02 2.07
v 6.94 10.02 4
v 5.66 10.02 5.66
v 4 10.02 6.94
v 2.07 10.02 7.74
v 0 10.02 8.01
v -2.07 10.02 7.74
v -4 10.02 6.94
v -5.66 10.02 5.66
v -6.94 10.02 4
v -7.74 10.02 2.07
v -8.01 10.02 0
v -7.74 10.02 -2.07
v -6.94 10.02 -4
v -5.66 10.02 -5.66
v -4 10.02 -6.94
v -2.07 10.02 -7.74
v 0 10.02 -8.01
v 2.07 10.02 -7.74
v 4 10.02 -6.94
v 5.66 10.02 -5.66
v 6.94 10.02 -4
v 7.74 10.02 -2.07
v 8.16 8.43 0
v 7.89 8.43 2.11
v 7.07 8.43 4.08
v 5.77 8.43 5.77
v 4.08 8.43 7.07
v 2.11 8.43 7.89
v 0 8.43 8.16
v -2.11 8.43 7.89
v -4.08 8.43 7.07
v -5.77 8.43 5.77
v -7.07 8.43 4.08
v -7.89 8.43 2.11
v -8.16 8.43 0
v -7.89 8.43 -2.11
v -7.07 8.43 -4.08
v -5.77 8.43 -5.77
v -4.08 8.43 -7.07
v -2.11 8.43 -7.89
v 0 8.43 -8.16
v 2.11 8.43 -7.89
v 4.08 8.43 -7.07
v 5.77 8.43 -5.77
v 7.07 8.43 -4.08
v 7.89 8.43 -2.11
v 8.01 6.83 0
v 7.74 6.83 2.07
v 6.94 6.83 4
v 5.66 6.83 5.66
v 4 6.83 6.94
v 2.07 6.83 7.74
v 0 6.83 8.01
v -2.07 6.83 7.74
v -4 6.83 6.94
v -5.66 6.83 5.66
v -6.94 6.83 4
v -7.74 6.83 2.07
v -8.01 6.83 0
v -7.74 6.83 -2.07
v -6.94 6.83 -4
v -5.66 6.83 -5.66
v -4 6.83 -6.94
v -2.07 6.83 -7.74
v 0 6.83 -8.01
v 2.07 6.83 -7.74
v 4 6.83 -6.94
v 5.66 6.83 -5.66
v 6.94 6.83 -4
v 7.74 6.83 -2.07
v 7.54 5.3 0
v 7.29 5.3 1.95
v 6.53 5.3 3.77
v 5.33 5.3 5.33
v 3.77 5.3 6.53
v 1.95 5.3 7.29
v 0 5.3 7.54
v -1.95 5.3 7.29
v -3.77 5.3 6.53
v -5.33 5.3 5.33
v -6.53 5.3 3.77
v -7.29 5.3 1.95
v -7.54 5.3 0
v -7.29 5.3 -1.95
v -6.53 5.3 -3.77
v -5.33 5.3 -5.33
v -3.77 5.3 -6.53
v -1.95 5.3 -7.29
v 0 5.3 -7.54
v 1.95 5.3 -7.29
v 3.77 5.3 -6.53
v 5.33 5.3 -5.33
v 6.53 5.3 -3.77
v 7.29 5.3 -1.95
v 6.79 3.89 0
v 6.56 3.89 1.76
v 5.88 3.89 3.39
v 4.8 3.89 4.8
v 3.39 3.89 5.88
v 1.76 3.89 6.56
v 0 3.89 6.79
v -1.76 3.89 6.56
v -3.39 3.89 5.88
v -4.8 3.89 4.8
v -5.88 3.89 3.39
v -6.56 3.89 1.76
v -6.79 3.89 0
v -6.56 3.89 -1.76
v -5.88 3.89 -3.39
v -4.8 3.89 -4.8
v -3.39 3.89 -5.88
v -1.76 3.89 -6.56
v 0 3.89 -6.79
v 1.76 3.89 -6.56
v 3.39 3.89 -5.88
v 4.8 3.89 -4.8
v 5.88 3.89 -3.39
v 6.56 3.89 -1.76
v 5.77 2.65 0
v 5.58 2.65 1.49
v 5 2.65 2.89
v 4.08 2.65 4.08
v 2.89 2.65 5
v 1.49 2.65 5.58
v 0 2.65 5.77
v -1.49 2.65 5.58
v -2.89 2.65 5
v -4.08 2.65 4.08
v -5 2.65 2.89
v -5.58 2.65 1.49
v -5.77 2.65 0
v -5.58 2.65 -1.49
v -5 2.65 -2.89
v -4.08 2.65 -4.08
v -2.89 2.65 -5
v -1.49 2.65 -5.58
v 0 2.65 -5.77
v 1.49 2.65 -5.58
v 2.89 2.65 -5
v 4.08 2.65 -4.08
v 5 2.65 -2.89
v 5.58 2.65 -1.49
v 4.54 1.64 0
v 4.38 1.64 1.17
v 3.93 1.64 2.27
v 3.21 1.64 3.21
v 2.27 1.64 3.93
v 1.17 1.64 4.38
v 0 1.64 4.54
v -1.17 1.64 4.38
v -2.27 1.64 3.93
v -3.21 1.64 3.21
v -3.93 1.64 2.27
v -4.38 1.64 1.17
v -4.54 1.64 0
v -4.38 1.64 -1.17
v -3.93 1.64 -2.27
v -3.21 1.64 -3.21
v -2.27 1.64 -3.93
v -1.17 1.64 -4.38
v 0 1.64 -4.54
v 1.17 1.64 -4.38
v 2.27 1.64 -3.93
v 3.21 1.64 -3.21
v 3.93 1.64 -2.27
v 4.38 1.64 -1.17
v 3.12 0.88 0
v 3.02 0.88 0.81
v 2.71 0.88 1.56
v 2.21 0.88 2.21
v 1.56 0.88 2.71
v 0.81 0.88 3.02
v 0 0.88 3.12
v -0.81 0.88 3.02
v -1.56 0.88 2.71
v -2.21 0.88 2.21
v -2.71 0.88 1.56
v -3.02 0.88 0.81
v -3.12 0.88 0
v -3.02 0.88 -0.81
v -2.71 0.88 -1.56
v -2.21 0.88 -2.21
v -1.56 0.88 -2.71
v -0.81 0.88 -3.02
v 0 0.88 -3.12
v 0.81 0.88 -3.02
v 1.56 0.88 -2.71
v 2.21 0.88 -2.21
v 2.71 0.88 -1.56
v 3.02 0.88 -0.81
v 1.59 0.42 0
v 1.54 0.42 0.41
v 1.38 0.42 0.8
v 1.13 0.42 1.13
v 0.8 0.42 1.38
v 0.41 0.42 1.54
v 0 0.42 1.59
v -0.41 0.42 1.54
v -0.8 0.42 1.38
v -1.13 0.42 1.13
v -1.38 0.42 0.8
v -1.54 0.42 0.41
v -1.59 0.42 0
v -1.54 0.42 -0.41
v -1.38 0.42 -0.8
v -1.13 0.42 -1.13
v -0.8 0.42 -1.38
v -0.41 0.42 -1.54
v 0 0.42 -1.59
v 0.41 0.42 -1.54
v 0.8 0.42 -1.38
v 1.13 0.42 -1.13
v 1.38 0.42 -0.8
v 1.54 0.42 -0.41
v 0 0.26 0
v 8.4 3.4 0
v 8.28 3.46 1.63
v 7.9 3.65 3.22
v 7.28 3.96 4.7
v 6.44 4.39 6.05
v 5.4 4.91 7.21
v 4.2 5.51 8.15
v 2.87 6.18 8.84
v 1.46 6.89 9.26
v 0 7.62 9.41
v -1.46 8.36 9.26
v -2.87 9.07 8.84
v -4.2 9.74 8.15
v -5.4 10.34 7.21
v -6.44 10.86 6.05
v -7.28 11.29 4.7
v -7.9 11.6 3.22
v -8.28 11.79 1.63
v -8.4 11.85 0
v -8.28 11.79 -1.63
v -7.9 11.6 -3.22
v -7.28 11.29 -4.7
v -6.44 10.86 -6.05
v -5.4 10.34 -7.21
v -4.2 9.74 -8.15
v -2.87 9.07 -8.84
v -1.46 8.36 -9.26
v 0 7.63 -9.41
v 1.46 6.89 -9.26
v 2.87 6.18 -8.84
v 4.2 5.51 -8.15
v 5.4 4.91 -7.21
v 6.44 4.39 -6.05
v 7.28 3.96 -4.7
v 7.9 3.65 -3.22
v 8.28 3.46 -1.63
v 15.12 0.02 0
v 14.89 0.13 2.94
v 14.21 0.48 5.79
v 13.1 1.04 8.46
v 11.59 1.8 10.88
v 9.72 2.74 12.97
v 7.56 3.82 14.66
v 5.17 5.02 15.91
v 2.63 6.3 16.67
v 0 7.62 16.93
v -2.63 8.95 16.67
v -5.17 10.23 15.91
v -7.56 11.43 14.66
v -9.72 12.51 12.97
v -11.59 13.45 10.88
v -13.1 14.21 8.46
v -14.21 14.77 5.79
v -14.89 15.12 2.94
v -15.12 15.23 0
v -14.89 15.12 -2.94
v -14.21 14.77 -5.79
v -13.1 14.21 -8.47
v -11.59 13.45 -10.88
v -9.72 12.51 -12.97
v -7.56 11.43 -14.66
v -5.17 10.23 -15.91
v -2.63 8.95 -16.67
v 0 7.63 -16.93
v 2.63 6.3 -16.67
v 5.17 5.02 -15.91
v 7.56 3.82 -14.66
v 9.72 2.74 -12.97
v 11.59 1.8 -10.88
v 13.1 1.04 -8.47
v 14.21 0.48 -5.79
v 14.89 0.13 -2.94
g saturn_GEO
f 1 2 3
f 1 3 4
f 1 4 5
f 1 5 6
f 1 6 7
f 1 7 8
f 1 8 9
f 1 9 10
f 1 10 11
f 1 11 12
f 1 12 13
f 1 13 14
f 1 14 15
f 1 15 16
f 1 16 17
f 1 17 18
f 1 18 19
f 1 19 20
f 1 20 21
f 1 21 22
f 1 22 23
f 1 23 24
f 1 24 25
f 1 25 2
f 2 26 27 3
f 3 27 28 4
f 4 28 29 5
f 5 29 30 6
f 6 30 31 7
f 7 31 32 8
f 8 32 33 9
f 9 33 34 10
f 10 34 35 11
f 11 35 36 12
f 12 36 37 13
f 13 37 38 14
f 14 38 39 15
f 15 39 40 16
f 16 40 41 17
f 17 41 42 18
f 18 42 43 19
f 19 43 44 20
f 20 44 45 21
f 21 45 46 22
f 22 46 47 23
f 23 47 48 24
f 24 48 49 25
f 25 49 26 2
f 26 50 51 27
f 27 51 52 28
f 28 52 53 29
f 29 53 54 30
f 30 54 55 31
f 31 55 56 32
f 32 56 57 33
f 33 57 58 34
f 34 58 59 35
f 35 59 60 36
f 36 60 61 37
f 37 61 62 38
f 38 62 63 39
f 39 63 64 40
f 40 64 65 41
f 41 65 66 42
f 42 66 67 43
f 43 67 68 44
f 44 68 69 45
f 45 69 70 46
f 46 70 71 47
f 47 71 72 48
f 48 72 73 49
f 49 73 50 26
f 50 74 75 51
f 51 75 76 52
f 52 76 77 53
f 53 77 78 54
f 54 78 79 55
f 55 79 80 56
f 56 80 81 57
f 57 81 82 58
f 58 82 83 59
f 59 83 84 60
f 60 84 85 61
f 61 85 86 62
f 62 86 87 63
f 63 87 88 64
f 64 88 89 65
f 65 89 90 66
f 66 90 91 67
f 67 91 92 68
f 68 92 93 69
f 69 93 94 70
f 70 94 95 71
f 71 95 96 72
f 72 96 97 73
f 73 97 74 50
f 74 98 99 75
f 75 99 100 76
f 76 100 101 77
f 77 101 102 78
f 78 102 103 79
f 79 103 104 80
f 80 104 105 81
f 81 105 106 82
f 82 106 107 83
f 83 107 108 84
f 84 108 109 85
f 85 109 110 86
f 86 110 111 87
f 87 111 112 88
f 88 112 113 89
f 89 113 114 90
f 90 114 115 91
f 91 115 116 92
f 92 116 117 93
f 93 117 118 94
f 94 118 119 95
f 95 119 120 96
f 96 120 121 97
f 97 121 98 74
f 98 122 123 99
f 99 123 124 100
f 100 124 125 101
f 101 125 126 102
f 102 126 127 103
f 103 127 128 104
f 104 128 129 105
f 105 129 130 106
f 106 130 131 107
f 107 131 132 108
f 108 132 133 109
f 109 133 134 110
f 110 134 135 111
f 111 135 136 112
f 112 136 137 113
f 113 137 138 114
f 114 138 139 115
f 115 139 140 116
f 116 140 141 117
f 117 141 142 118
f 118 142 143 119
f 119 143 144 120
f 120 144 145 121
f 121 145 122 98
f 122 146 147 123
f 123 147 148 124
f 124 148 149 125
f 125 149 150 126
f 126 150 151 127
f 127 151 152 128
f 128 152 153 129
f 129 153 154 130
f 130 154 155 131
f 131 155 156 132
f 132 156 157 133
f 133 157 158 134
f 134 158 159 135
f 135 159 160 136
f 136 160 161 137
f 137 161 162 138
f 138 162 163 139
f 139 163 164 140
f 140 164 165 141
f 141 165 166 142
f 142 166 167 143
f 143 167 168 144
f 144 168 169 145
f 145 169 146 122
f 146 170 171 147
f 147 171 172 148
f 148 172 173 149
f 149 173 174 150
f 150 174 175 151
f 151 175 176 152
f 152 176 177 153
f 153 177 178 154
f 154 178 179 155
f 155 179 180 156
f 156 180 181 157
f 157 181 182 158
f 158 182 183 159
f 159 183 184 160
f 160 184 185 161
f 161 185 186 162
f 162 186 187 163
f 163 187 188 164
f 164 188 189 165
f 165 189 190 166
f 166 190 191 167
f 167 191 192 168
f 168 192 193 169
f 169 193 170 146
f 170 194 195 171
f 171 195 196 172
f 172 196 197 173
f 173 197 198 174
f 174 198 199 175
f 175 199 200 176
f 176 200 201 177
f 177 201 202 178
f 178 202 203 179
f 179 203 204 180
f 180 204 205 181
f 181 205 206 182
f 182 206 207 183
f 183 207 208 184
f 184 208 209 185
f 185 209 210 186
f 186 210 211 187
f 187 211 212 188
f 188 212 213 189
f 189 213 214 190
f 190 214 215 191
f 191 215 216 192
f 192 216 217 193
f 193 217 194 170
f 194 218 219 195
f 195 219 220 196
f 196 220 221 197
f 197 221 222 198
f 198 222 223 199
f 199 223 224 200
f 200 224 225 201
f 201 225 226 202
f 202 226 227 203
f 203 227 228 204
f 204 228 229 205
f 205 229 230 206
f 206 230 231 207
f 207 231 232 208
f 208 232 233 209
f 209 233 234 210
f 210 234 235 211
f 211 235 236 212
f 212 236 237 213
f 213 237 238 214
f 214 238 239 215
f 215 239 240 216
f 216 240 241 217
f 217 241 218 194
f 218 242 243 219
f 219 243 244 220
f 220 244 245 221
f 221 245 246 222
f 222 246 247 223
f 223 247 248 224
f 224 248 249 225
f 225 249 250 226
f 226 250 251 227
f 227 251 252 228
f 228 252 253 229
f 229 253 254 230
f 230 254 255 231
f 231 255 256 232
f 232 256 257 233
f 233 257 258 234
f 234 258 259 235
f 235 259 260 236
f 236 260 261 237
f 237 261 262 238
f 238 262 263 239
f 239 263 264 240
f 240 264 265 241
f 241 265 242 218
f 242 266 267 243
f 243 267 268 244
f 244 268 269 245
f 245 269 270 246
f 246 270 271 247
f 247 271 272 248
f 248 272 273 249
f 249 273 274 250
f 250 274 275 251
f 251 275 276 252
f 252 276 277 253
f 253 277 278 254
f 254 278 279 255
f 255 279 280 256
f 256 280 281 257
f 257 281 282 258
f 258 282 283 259
f 259 283 284 260
f 260 284 285 261
f 261 285 286 262
f 262 286 287 263
f 263 287 288 264
f 264 288 289 265
f 265 289 266 242
f 266 290 291 267
f 267 291 292 268
f 268 292 293 269
f 269 293 294 270
f 270 294 295 271
f 271 295 296 272
f 272 296 297 273
f 273 297 298 274
f 274 298 299 275
f 275 299 300 276
f 276 300 301 277
f 277 301 302 278
f 278 302 303 279
f 279 303 304 280
f 280 304 305 281
f 281 305 306 282
f 282 306 307 283
f 283 307 308 284
f 284 308 309 285
f 285 309 310 286
f 286 310 311 287
f 287 311 312 288
f 288 312 313 289
f 289 313 290 266
f 290 314 315 291
f 291 315 316 292
f 292 316 317 293
f 293 317 318 294
f 294 318 319 295
f 295 319 320 296
f 296 320 321 297
f 297 321 322 298
f 298 322 323 299
f 299 323 324 300
f 300 324 325 301
f 301 325 326 302
f 302 326 327 303
f 303 327 328 304
f 304 328 329 305
f 305 329 330 306
f 306 330 331 307
f 307 331 332 308
f 308 332 333 309
f 309 333 334 310
f 310 334 335 311
f 311 335 336 312
f 312 336 337 313
f 313 337 314 290
f 314 338 339 315
f 315 339 340 316
f 316 340 341 317
f 317 341 342 318
f 318 342 343 319
f 319 343 344 320
f 320 344 345 321
f 321 345 346 322
f 322 346 347 323
f 323 347 348 324
f 324 348 349 325
f 325 349 350 326
f 326 350 351 327
f 327 351 352 328
f 328 352 353 329
f 329 353 354 330
f 330 354 355 331
f 331 355 356 332
f 332 356 357 333
f 333 357 358 334
f 334 358 359 335
f 335 359 360 336
f 336 360 361 337
f 337 361 338 314
f 338 362 339
f 339 362 340
f 340 362 341
f 341 362 342
f 342 362 343
f 343 362 344
f 344 362 345
f 345 362 346
f 346 362 347
f 347 362 348
f 348 362 349
f 349 362 350
f 350 362 351
f 351 362 352
f 352 362 353
f 353 362 354
f 354 362 355
f 355 362 356
f 356 362 357
f 357 362 358
f 358 362 359
f 359 362 360
f 360 362 361
f 361 362 338
g saturn_rings_GEO
f 363 399 400 364
f 364 400 399 363
f 364 400 401 365
f 365 401 400 364
f 365 401 402 366
f 366 402 401 365
f 366 402 403 367
f 367 403 402 366
f 367 403 404 368
f 368 404 403 367
f 368 404 405 369
f 369 405 404 368
f 369 405 406 370
f 370 406 405 369
f 370 406 407 371
f 371 407 406 370
f 371 407 408 372
f 372 408 407 371
f 372 408 409 373
f 373 409 408 372
f 373 409 410 374
f 374 410 409 373
f 374 410 411 375
f 375 411 410 374
f 375 411 412 376
f 376 412 411 375
f 376 412 413 377
f 377 413 412 376
f 377 413 414 378
f 378 414 413 377
f 378 414 415 379
f 379 415 414 378
f 379 415 416 380
f 380 416 415 379
f 380 416 417 381
f 381 417 416 380
f 381 417 418 382
f 382 418 417 381
f 382 418 419 383
f 383 419 418 382
f 383 419 420 384
f 384 420 419 383
f 384 420 421 385
f 385 421 420 384
f 385 421 422 386
f 386 422 421 385
f 386 422 423 387
f 387 423 422 386
f 387 423 424 388
f 388 424 423 387
f 388 424 425 389
f 389 425 424 388
f 389 425 426 390
f 390 426 425 389
f 390 426 427 391
f 391 427 426 390
f 391 427 428 392
f 392 428 427 391
f 392 428 429 393
f 393 429 428 392
f 393 429 430 394
f 394 430 429 393
f 394 430 431 395
f 395 431 430 394
f 395 431 432 396
f 396 432 431 395
f 396 432 433 397
f 397 433 432 396
f 397 433 434 398
f 398 434 433 397
f 398 434 399 363
f 363 399 434 398
